<?xml version="1.0" standalone="no"?>
<!DOCTYPE svg PUBLIC "-//W3C//DTD SVG 20010904//EN"
 "http://www.w3.org/TR/2001/REC-SVG-20010904/DTD/svg10.dtd">
<svg version="1.0" xmlns="http://www.w3.org/2000/svg"
 width="1044.000000pt" height="904.000000pt" viewBox="0 0 1044.000000 904.000000"
 preserveAspectRatio="xMidYMid meet">

<g transform="translate(0.000000,904.000000) scale(0.100000,-0.100000)"
fill="#000000" stroke="none">
<path d="M8086 8979 c-143 -159 -173 -310 -163 -826 l6 -322 -607 0 c-641 -1
-877 -11 -1195 -51 -1020 -131 -1667 -569 -2150 -1455 -209 -382 -370 -829
-547 -1510 -147 -568 -250 -874 -390 -1160 -221 -452 -520 -721 -917 -825
-183 -48 -258 -52 -1023 -49 l-715 3 -70 -23 c-99 -32 -172 -80 -249 -161
l-66 -70 0 -566 0 -566 36 -59 c116 -191 230 -269 419 -286 50 -4 398 -5 775
-2 545 5 713 10 820 23 650 79 1148 277 1600 635 125 99 344 319 453 456 184
230 378 550 515 849 163 354 270 656 506 1422 189 615 238 753 336 960 175
364 423 555 865 663 253 61 410 73 1041 78 l562 5 5 -419 c5 -465 14 -565 70
-769 l32 -119 110 3 c133 3 205 21 307 74 90 46 162 107 411 341 206 195 304
292 462 458 61 64 220 212 355 329 264 230 516 476 594 580 110 148 146 269
111 383 -42 139 -123 243 -401 518 -298 293 -296 291 -1012 938 l-632 571
-104 0 -104 0 -46 -51z"/>
<path d="M760 8000 c-282 -18 -468 -53 -588 -112 l-67 -33 -22 -94 c-45 -190
-57 -342 -58 -691 0 -385 15 -516 82 -697 l15 -41 97 -26 c53 -14 123 -31 156
-37 94 -18 574 -23 990 -10 697 23 880 -6 1141 -179 180 -120 302 -238 460
-450 91 -121 199 -237 350 -374 l51 -46 47 185 c103 412 192 625 460 1105 69
124 139 259 156 301 30 77 72 220 67 226 -2 1 -39 26 -83 56 -43 29 -203 143
-354 253 -299 217 -397 280 -564 362 -288 140 -584 220 -970 262 -353 38
-1062 59 -1366 40z"/>
<path d="M5110 4247 c0 -9 -79 -433 -95 -507 -61 -289 -169 -570 -387 -1005
-89 -176 -172 -351 -185 -390 -32 -96 -55 -197 -46 -205 75 -62 454 -368 498
-402 332 -252 701 -399 1170 -467 351 -51 555 -61 1273 -61 l614 0 -7 -302
c-10 -453 15 -620 123 -808 l49 -85 124 -3 125 -3 154 128 c331 271 597 519
916 854 71 74 179 177 239 228 245 208 501 457 708 690 l57 64 0 139 0 139
-72 82 c-139 155 -194 210 -334 333 -78 68 -198 186 -267 263 -76 82 -281 280
-507 486 -209 192 -380 351 -380 354 -1 13 -218 242 -265 279 -65 52 -167 106
-233 126 -29 8 -97 18 -151 22 l-97 7 -37 -51 c-125 -169 -165 -432 -151 -978
l7 -271 -52 -7 c-80 -11 -764 -8 -938 4 -466 31 -776 103 -1028 237 -66 35
-112 70 -171 128 -100 98 -144 166 -241 365 -41 85 -96 189 -121 230 -41 66
-292 400 -292 387z"/>
</g>
</svg>
